<?xml version="1.0" encoding="UTF-8" standalone="no"?>
<!DOCTYPE svg PUBLIC "-//W3C//DTD SVG 1.1//EN" "http://www.w3.org/Graphics/SVG/1.1/DTD/svg11.dtd">
<svg xmlns="http://www.w3.org/2000/svg" xml:space="preserve" fill-rule="evenodd" stroke-linecap="round" stroke-linejoin="round" stroke-miterlimit="1.41421" clip-rule="evenodd" viewBox="0 0 83 83">
  <g transform="translate(-115.981 -17.1848) scale(.4656)">
    <path fill="#fff" fill-rule="nonzero" stroke="#000" stroke-width="5.96" d="M287.76 46.679c-5.636 0-10.188 4.52-10.188 10.156v138.06c0 5.636 4.552 10.188 10.188 10.188h100.28c5.636 0 10.156-4.552 10.156-10.188V76.275l-29.6-29.599h-80.844l.008.003Z"/>
    <path fill="#fff" fill-rule="nonzero" stroke="#000" stroke-width="5.66" d="m397.83 75.929-29.59-29.625v19.438c0 5.636 4.52 10.188 10.156 10.188h19.438l-.004-.001Z"/>
    <g transform="translate(-5.34109 7.64508) scale(.98662)">
      <path fill="#fff" d="M290.56657053 61.19313901 267.0328605 76.54267464v67.40217497l23.83863281 26.05506826-.30492278-108.80677886Zm63.20256237 145.30939742.82745923-15.87293268-63.71231723-17.00073018-8.7976282 19.36256701 3.08100867 11.01441372 68.60147756 2.49668213Z"/>
      <g transform="translate(242.588 57.3145) scale(.7437)">
        <path fill="#d9d9d9" d="M62.425 190.2c-8.862-10.497 8.223-20.789 6.367-31.434.165-9.169-3-17.637-8.071-25.181-5.408-10.42-16.315-16.74-20.303-28.07-9.76-21.955-10.638-48.887.793-70.371C58.95 10.082 92.854.721 122.049 7.209c19.045 4.108 40.045 10.941 50.98 28.36 10.967 16.478 10.135 36.907 11.937 55.75 3.145 8.977 9.538 16.281 15.848 23.122 6.351 11.123-17.857 8.49-8.822 20.524-.517 5.379-9.419 2.794-2.801 8.725-1.118 4.466-6.854 10.31-1.92 16.259 3.071 9.321-4.687 15.982-13.577 15.487-10.851.516-22.873 1.181-30.892 9.6-3.994 7.423.378 6.424-.983 12.847-4.964 6.623-67.976.014-79.396-7.679-8.781-5.916.002-.004.002-.004Z"/>
        <path d="m104.559 5.22.709.01.708.016.708.021.708.028.707.033.706.039.706.045.706.05.704.057.704.062.703.068.702.073.701.08.7.085.699.092.698.096.697.103.696.109.694.114.693.12.691.126.69.132.689.137.686.144.685.149.895.195.896.198.899.204.901.207.903.213.905.217.905.222.907.228.907.233.907.238.908.245.907.25.907.257.907.263.905.269.904.276.903.283.9.29.899.297.896.305.894.312.89.32.888.328.442.167.442.169.441.171.439.173.439.176.438.177.436.18.436.182.434.184.433.186.432.189.431.19.429.193.428.196.427.198.425.2.424.203.423.205.421.207.419.21.418.212.417.215.414.217.413.22.412.223.409.225.408.228.406.23.405.233.402.236.401.238.398.242.397.243.394.247.393.25.39.252.389.255.386.258.384.261.382.264.38.267.377.269.375.273.373.276.37.278.368.282.366.285.362.288.361.291.358.294.355.297.353.301.35.303.347.307.345.31.342.314.339.316.336.321.334.323.33.327.328.33.324.333.322.337.319.341.315.343.313.348.309.351.306.354.303.358.3.362.296.365.293.369.29.372.286.376.283.38.28.383.276.388.272.391.269.395.266.398.261.403.258.406.255.387.251.388.246.39.242.391.238.393.234.394.23.395.226.397.222.398.218.399.213.4.21.402.207.403.202.404.199.406.195.407.191.408.188.409.184.41.181.411.177.413.174.414.17.414.167.416.163.417.161.418.157.419.153.42.151.421.148.422.144.423.141.424.139.425.135.425.133.427.129.428.127.428.124.43.122.43.118.431.116.431.113.433.111.433.108.435.106.435.103.435.101.437.098.437.096.437.094.439.091.439.09.44.087.44.085.441.163.883.156.886.148.888.14.89.134.892.127.894.12.895.115.897.108.898.104.899.098.9.093.901.089.903.085.902.082.904.078.904.074.904.072.904.07.905.133 1.809.128 1.808.125 1.805.124 1.802.126 1.798.131 1.793.069.894.07.893.073.89.076.889.079.887.083.884.149.42.155.417.159.414.164.413.168.41.172.408.177.405.181.403.185.401.189.399.193.397.197.394.201.392.205.391.208.388.212.386.216.384.219.382.222.38.226.379.229.376.232.375.235.372.239.371.241.369.244.368.246.365.25.364.252.362.254.361.258.359.259.357.262.356.264.354.266.353.268.351.271.35.272.348.274.347.276.346.557.687.563.682.568.677.574.673.578.667.582.664.585.66.587.656.59.652.59.649.592.645.592.643.143.258.132.253.122.249.11.243.101.239.09.234.08.23.07.225.06.221.051.217.041.212.033.208.023.204.014.2.006.196-.003.193-.01.188-.019.185-.027.182-.035.178-.042.174-.05.172-.057.167-.063.165-.071.162-.077.159-.084.155-.089.153-.096.15-.102.148-.108.145-.113.142-.118.14-.124.138-.128.135-.134.133-.138.131-.142.129-.147.127-.151.125-.155.124-.158.121-.162.12-.165.119-.168.117-.172.115-.174.115-.177.113-.36.223-.369.219-.376.216-.381.213-.385.212-.388.21-.776.418-.385.211-.383.211-.377.213-.372.216-.363.22-.178.111-.176.112-.173.113-.17.115-.168.115-.164.118-.16.118-.157.121-.153.121-.15.124-.145.125-.14.127-.137.13-.131.131-.127.133-.122.136-.116.137-.111.141-.105.142-.1.145-.094.148-.087.151-.081.153-.075.156-.068.159-.061.162-.054.165-.047.168-.039.172-.032.175-.024.178-.015.182-.008.185v.189l.009.193.018.196.027.201.036.204.045.209.054.213.064.217.074.221.084.225.094.231.104.234.115.24.126.244.136.249.148.253.159.259.17.264.182.269.194.274.205.279-.013.125-.017.121-.019.119-.023.116-.025.114-.028.111-.031.108-.033.105-.036.103-.038.101-.041.098-.042.095-.046.094-.047.091-.049.088-.052.087-.053.084-.056.083-.057.08-.059.078-.061.076-.062.074-.064.073-.065.07-.067.069-.068.067-.141.129-.144.123-.149.117-.153.111-.155.105-.158.101-.16.097-.161.092-.162.088-.162.086-.161.082-.321.157-.313.149-.3.145-.145.072-.139.072-.135.072-.128.073-.123.074-.115.076-.108.077-.1.08-.092.083-.042.042-.04.043-.038.044-.035.045-.033.046-.03.047-.028.048-.024.049-.022.05-.019.052-.016.052-.013.054-.01.055-.007.057-.003.058-.001.06.003.061.007.062.01.064.013.066.018.068.021.069.024.071.029.073.032.075.037.076.04.079.045.081.048.083.053.085.058.087.061.089.066.092.071.094.155.195.174.205.194.215.213.226.234.236.255.248.277.26.299.272-.056.21-.062.212-.068.215-.074.216-.079.218-.084.22-.089.222-.094.224-.097.225-.101.227-.211.46-.221.466-.229.473-.469.964-.235.49-.231.496-.113.25-.111.252-.109.252-.106.254-.103.255-.1.256-.096.258-.092.258-.087.26-.083.26-.077.262-.072.263-.067.263-.06.265-.053.265-.047.267-.039.267-.032.268-.024.269-.015.269-.005.135-.002.136-.001.135.003.136.004.135.007.136.009.136.012.137.014.136.017.137.019.136.022.137.025.137.028.137.03.138.033.137.036.137.039.138.041.138.045.138.048.138.051.138.054.138.057.138.06.139.064.138.066.139.071.138.073.139.077.139.081.139.084.139.087.139.092.139.094.139.099.139.102.14.106.139.11.139.114.14.07.218.066.217.062.216.058.215.055.214.05.212.047.212.043.211.039.21.036.208.032.208.028.206.024.206.021.204.018.203.014.202.01.2.007.2.003.198v.197l-.003.196-.007.194-.01.194-.014.192-.017.19-.02.19-.023.188-.027.187-.03.185-.033.184-.036.183-.039.181-.042.18-.045.179-.049.177-.051.176-.054.174-.058.173-.06.172-.063.17-.066.168-.068.167-.072.165-.074.164-.077.163-.08.161-.082.159-.085.157-.088.157-.09.154-.093.153-.096.151-.098.15-.1.148-.103.146-.106.145-.107.142-.111.142-.112.139-.115.138-.117.136-.12.134-.121.132-.124.131-.126.129-.129.127-.13.125-.133.124-.134.121-.137.12-.138.118-.141.116-.143.114-.144.112-.147.11-.148.108-.15.107-.152.104-.154.102-.156.101-.157.098-.159.096-.161.095-.163.092-.164.09-.165.088-.168.086-.168.084-.171.082-.172.08-.173.078-.175.075-.176.074-.177.071-.179.069-.18.066-.182.065-.183.062-.184.06-.185.058-.187.056-.187.053-.189.051-.19.049-.191.046-.192.045-.193.041-.194.04-.195.037-.196.034-.197.033-.198.03-.198.027-.2.025-.2.023-.201.02-.202.018-.202.015-.203.013-.204.01-.205.007-.205.006-.205.002h-.207l-.206-.002-.208-.005-.207-.008-.208-.01-1.021.049-1.026.051-1.032.055-1.035.06-1.039.067-1.04.074-.521.041-.521.043-.521.045-.521.049-.521.051-.521.055-.52.058-.519.061-.519.066-.518.069-.518.073-.516.077-.515.082-.514.086-.512.092-.511.096-.51.101-.508.106-.505.112-.504.117-.502.123-.5.13-.497.135-.495.142-.492.148-.49.154-.487.162-.484.169-.481.175-.478.184-.475.19-.471.199-.467.206-.233.106-.232.108-.23.11-.23.113-.229.114-.227.117-.227.118-.226.121-.225.123-.223.125-.223.128-.222.129-.22.132-.22.135-.218.136-.217.139-.216.142-.215.143-.214.146-.212.149-.212.151-.21.153-.209.156-.207.159-.207.161-.205.163-.204.166-.202.169-.201.171-.2.174-.199.177-.197.179-.196.182-.194.185-.193.187-.192.191-.19.193-.188.196-.182.342-.169.329-.157.319-.147.307-.135.296-.125.285-.114.276-.105.266-.094.256-.086.247-.076.238-.068.23-.059.222-.051.215-.043.207-.037.2-.028.194-.023.188-.015.182-.01.176-.004.171.002.167.007.162.011.158.016.155.021.151.024.148.028.146.031.144.034.142.036.14.039.139.083.277.088.277.09.279.091.286.088.294.042.151.04.154.039.158.036.162.034.167.031.171.027.176.024.181.021.188.015.193.012.2.007.207.001.214-.004.222-.01.23-.016.238-.023.247-.029.256-.036.265-.044.275-.052.285-.059.296-.061.077-.066.076-.072.074-.076.074-.082.072-.087.071-.091.07-.097.068-.102.068-.107.066-.112.065-.117.064-.121.063-.127.062-.131.06-.135.059-.141.059-.145.057-.15.056-.154.055-.159.053-.163.053-.168.051-.173.051-.176.049-.181.048-.375.093-.391.089-.409.084-.424.08-.44.076-.456.071-.471.068-.487.063-.5.059-.516.055-.529.051-.543.047-.556.043-.57.039-.582.035-.595.031-.607.027-.619.024-.63.02-.641.016-.653.012-.663.009-.673.005-.684.002-.692-.002-.703-.006-.711-.009-.72-.012-.728-.016-.737-.02-.744-.022-.752-.026-.759-.03-.765-.032-.773-.036-.778-.039-.784-.042-.79-.045-.795-.048-.8-.052-.805-.054-.809-.057-.813-.06-.817-.063-.82-.066-.823-.069-.826-.072-.828-.074-.831-.077-.832-.08-.834-.082-.835-.085-.836-.088-.836-.09-.837-.093-.836-.095-.836-.097-.836-.1-.834-.103-.833-.105-.832-.107-.829-.109-.828-.112-.824-.113-.822-.116-.819-.118-.815-.121-.811-.122-.807-.124-.803-.126-.797-.129-.793-.13-.788-.132-.781-.134-.776-.135-.769-.138-.763-.139-.755-.141-.748-.143-.741-.144-.733-.146-.724-.148-.717-.149-.707-.15-.698-.152-.688-.154-.679-.155-.669-.156-.658-.157-.647-.159-.637-.16-.625-.162-.613-.162-.601-.164-.589-.165-.577-.166-.563-.167-.55-.168-.537-.169-.523-.17-.509-.171-.494-.172-.479-.172-.464-.174-.449-.174-.433-.175-.417-.176-.4-.176-.384-.177-.367-.177-.35-.179-.168-.089-.163-.089-.16-.09-.154-.09-.15-.089-.146-.09-.141-.09-.136-.09-3.704-2.496-.154-.105.566.381 3.294 2.216-.203-.246-.194-.246-.184-.246-.175-.245-.166-.246-.158-.246-.149-.245-.14-.246-.131-.245-.123-.246-.115-.245-.107-.245-.099-.245-.091-.246-.084-.245-.076-.245-.068-.245-.061-.245-.054-.245-.047-.245-.04-.244-.033-.245-.026-.245-.02-.245-.014-.244-.007-.245-.001-.244.005-.245.011-.245.017-.244.022-.244.028-.245.033-.244.039-.245.044-.244.048-.245.054-.244.058-.244.063-.245.068-.244.071-.244.076-.244.08-.245.085-.244.088-.244.091-.244.096-.245.098-.244.102-.244.106-.244.108-.245.111-.244.115-.244.116-.245.12-.244.122-.244.25-.489.259-.489.266-.488.272-.489.277-.489.282-.49.571-.978.574-.98.571-.98.282-.49.277-.491.272-.491.266-.491.258-.491.251-.492.122-.246.119-.245.117-.247.114-.246.111-.246.109-.246.105-.247.102-.246.098-.247.096-.246.091-.247.088-.247.084-.247.08-.247.076-.247.072-.247.067-.247.063-.248.058-.247.054-.248.048-.247.044-.248.038-.248.034-.248.027-.248.023-.248.016-.249.011-.248.005-.249-.001-.248-.007-.249-.014-.249-.02-.249-.027-.249-.033-.25-.04-.249.005-.429.001-.429-.004-.427-.01-.426-.013-.425-.019-.424-.023-.423-.028-.422-.033-.421-.037-.42-.042-.418-.046-.418-.051-.417-.055-.415-.059-.414-.064-.414-.069-.412-.072-.411-.077-.41-.081-.409-.086-.407-.089-.407-.094-.405-.098-.404-.102-.404-.106-.402-.11-.4-.114-.4-.118-.398-.122-.398-.126-.396-.13-.395-.134-.393-.137-.393-.141-.391-.145-.39-.149-.389-.152-.388-.156-.387-.159-.385-.163-.384-.167-.383-.17-.381-.174-.381-.177-.379-.18-.377-.184-.377-.187-.375-.191-.374-.193-.373-.197-.371-.201-.37-.203-.369-.207-.368-.209-.366-.213-.365-.216-.364-.219-.362-.222-.361-.224-.36-.228-.358-.231-.357-.233-.356-.237-.354-.127-.243-.13-.242-.132-.241-.133-.239-.136-.238-.137-.236-.139-.235-.141-.234-.287-.463-.293-.459-.3-.454-.306-.449-.312-.445-.317-.441-.322-.437-.328-.433-.332-.43-.336-.426-.34-.423-.345-.421-.347-.417-.351-.416-.354-.413-.357-.411-.358-.409-.361-.407-.728-.811-.732-.807-.734-.805-.735-.804-.734-.805-.729-.807-.362-.406-.36-.406-.358-.408-.356-.41-.353-.412-.35-.414-.347-.416-.343-.419-.339-.421-.335-.425-.33-.428-.326-.431-.321-.434-.315-.439-.31-.442-.304-.447-.298-.451-.291-.455-.285-.461-.14-.232-.138-.233-.136-.235-.134-.236-.132-.237-.131-.239-.128-.241-.127-.241-.124-.243-.123-.245-.12-.246-.118-.248-.116-.249-.114-.251-.111-.253-.109-.254-.107-.256-.105-.257-.102-.259-.1-.262-.097-.262-.095-.265-.227-.515-.223-.518-.221-.519-.217-.521-.214-.522-.211-.524-.207-.526-.205-.527-.2-.529-.198-.531-.194-.532-.19-.533-.188-.536-.184-.536-.18-.538-.177-.539-.174-.541-.171-.542-.166-.543-.164-.544-.16-.546-.156-.547-.154-.548-.149-.549-.146-.55-.143-.552-.139-.552-.136-.553-.132-.555-.128-.555-.125-.556-.122-.558-.117-.558-.115-.558-.11-.56-.108-.561-.103-.561-.1-.562-.096-.562-.093-.564-.089-.564-.085-.564-.082-.565-.078-.566-.074-.566-.071-.567-.066-.567-.064-.567-.059-.568-.056-.568-.052-.569-.048-.569-.045-.569-.04-.569-.037-.57-.033-.57-.03-.57-.025-.57-.022-.57-.018-.57-.014-.57-.01-.571-.006-.57-.003-.57.002-.57.005-.57.009-.57.014-.57.017-.569.021-.569.025-.569.028-.569.033-.568.037-.568.041-.568.045-.567.048-.567.053-.566.057-.566.061-.565.065-.565.069-.564.072-.563.078-.563.081-.562.085-.561.089-.561.094-.56.097-.559.102-.558.105-.557.11-.557.114-.556.119-.554.122-.554.127-.552.13-.552.135-.55.14-.55.143-.548.148-.547.152-.546.156-.545.16-.543.165-.543.169-.54.173-.54.178-.538.182-.537.186-.535.19-.534.195-.532.199-.531.204-.53.208-.527.212-.527.217-.524.221-.523.226-.521.23-.519.234-.518.239-.516.243-.514.248-.512.252-.511.257-.508.261-.506.265-.505.419-.585.425-.578.43-.573.436-.568.442-.561.447-.556.453-.55.459-.544.464-.539.469-.532.475-.527.48-.522.485-.515.49-.51.495-.504.501-.498.505-.492.51-.487.515-.481.52-.475.524-.47.53-.463.534-.458.538-.452.543-.447.547-.44.552-.435.556-.429.56-.424.564-.417.569-.412.572-.406.577-.401.581-.394.584-.389.588-.383.592-.377.596-.372.599-.365.603-.36.607-.354.61-.349.613-.342.617-.337.62-.331.623-.326.627-.319.629-.314.633-.308.636-.302.638-.297.642-.291.644-.284.647-.28.65-.273.652-.268.655-.262.657-.256.66-.25.662-.244.665-.239.667-.233.669-.227.671-.222.673-.215.676-.21.677-.204.68-.199.681-.192.683-.187.684-.181.687-.175.688-.17.689-.163.691-.158.693-.152.694-.146.695-.141.696-.135.698-.129.699-.123.7-.117.7-.112.702-.105.703-.1.704-.095.704-.088.705-.083.706-.077.706-.071.707-.065.708-.06.708-.053.708-.048.708-.042.709-.037.709-.03.709-.025.709-.019.709-.013.709-.007.709-.002.709.004Zm-1.37 7.572-.647.007-.647.012-.647.017-.648.023-.647.028-.647.033-.647.038-.646.044-.646.049-.646.054-.645.06-.645.065-.644.07-.643.075-.643.081-.642.086-.641.091-.64.097-.639.101-.638.107-.636.113-.636.117-.635.123-.633.128-.632.133-.63.139-.629.143-.627.149-.626.154-.624.159-.623.165-.62.17-.619.175-.617.18-.615.185-.613.19-.61.196-.609.201-.606.206-.605.211-.601.216-.6.221-.597.227-.595.231-.592.237-.589.242-.587.247-.584.252-.581.257-.578.262-.576.267-.572.272-.57.278-.567.282-.563.288-.56.292-.557.298-.554.302-.551.307-.547.313-.543.317-.541.323-.536.327-.534.333-.529.337-.526.343-.522.347-.518.352-.515.357-.51.362-.507.368-.503.372-.499.376-.494.382-.491.387-.487.392-.482.396-.478.402-.474.406-.469.411-.465.416-.461.422-.456.426-.451.43-.448.436-.442.441-.438.445-.433.451-.429.455-.424.461-.419.465-.414.47-.409.475-.404.48-.4.485-.394.49-.39.495-.384.5-.379.504-.374.51-.091.128-.009.016-.231.449-.228.45-.223.453-.22.454-.216.456-.212.458-.208.46-.204.461-.201.464-.196.465-.193.466-.189.468-.185.47-.182.472-.177.473-.174.475-.17.476-.166.478-.163.479-.158.481-.155.482-.151.484-.148.485-.143.486-.14.488-.136.489-.132.49-.129.492-.125.493-.121.494-.117.495-.114.497-.11.497-.106.499-.103.5-.099.501-.095.501-.092.503-.088.504-.084.505-.08.506-.077.506-.074.508-.069.508-.066.509-.062.51-.059.511-.055.511-.051.512-.048.513-.044.513-.041.514-.037.514-.033.515-.03.516-.026.516-.023.516-.019.517-.015.517-.012.518-.009.518-.005.518-.001.518.002.519.006.519.009.519.013.519.016.519.02.52.023.519.027.52.03.519.034.52.037.519.041.519.044.519.047.519.051.519.054.518.058.518.061.518.064.518.068.517.072.517.074.516.078.516.081.515.085.515.088.515.091.513.095.514.098.512.101.512.105.511.108.51.111.51.114.509.117.508.121.507.124.506.127.505.131.504.134.504.136.502.14.501.144.5.146.499.149.498.153.496.156.496.158.494.162.493.165.491.168.491.172.488.174.488.177.486.18.484.184.483.186.482.189.479.192.479.196.476.198.475.201.474.204.471.326.74.172.481.07.188.071.187.074.187.075.186.077.185.08.184.081.184.083.183.085.183.087.182.089.182.091.182.092.181.095.181.097.181.098.181.101.18.103.181.104.18.107.18.1.167.231.373.23.361.238.36.246.361.253.361.261.362.268.364.275.364.282.365.289.366.296.368.303.369.309.371.315.373.321.374.327.377.332.379.338.381.339.379.705.781.717.787.732.801.744.815.756.833.757.844.388.438.384.439.386.444.386.451.385.456.386.463.385.47.383.477.382.484.38.492.378.5.375.508.372.517.368.525.364.535.359.543.354.554.34.55.18.298.17.288.169.29.167.293.165.295.163.299.161.3-.041-.079.031.047.264.402.261.404.258.406.255.408.252.41.249.412.246.414.242.417.24.418.236.42.233.422.23.425.226.426.223.429.219.43.216.433.212.435.208.436.205.439.201.441.198.442.193.445.19.447.186.449.182.451.178.452.174.455.169.457.166.459.161.461.157.462.153.465.148.467.144.468.139.471.135.472.13.474.126.476.121.478.116.48.111.481.107.484.101.485.097.487.092.488.086.491.082.492.076.493.072.496.066.496.06.499.056.5.049.501.045.503.039.505.033.505.028.508.023.508.016.51.011.511.006.513-.001.322.002.012v.055l.013.1.047.446.036.444.024.442.013.438.002.434-.009.431-.018.426-.028.422-.038.417-.046.412-.054.407-.063.401-.069.397-.077.391-.083.386-.09.381-.095.375-.101.37-.106.365-.11.359-.115.355-.119.349-.123.345-.127.341-.129.335-.133.331-.135.327-.138.322-.14.319-.142.314-.144.311-.145.306-.147.303-.155.312-.292.575-.303.575-.305.563-.305.55-.305.539-.306.534-.59 1.013-.576.981-.554.95-.258.449-.251.442-.24.431-.228.419-.215.407-.209.407-.089.18-.092.188-.089.185-.084.18-.081.177-.076.173-.073.169-.069.164-.065.161-.06.155-.057.151-.053.147-.049.141-.044.137-.041.132-.038.126-.033.121-.03.116-.026.111-.023.105-.02.1-.017.094-.014.089-.011.083-.009.079-.007.074-.005.068-.003.064-.001.06v.056l.002.052.002.049.004.046.005.044.006.042.006.04.008.04.009.04.01.041.011.041.014.043.015.046.018.048.021.051.024.055.027.059.003.005.235.108.285.126.31.13.333.135.355.138.377.14.397.144.417.145.436.146.455.148.471.148.489.15.505.149.521.15.536.15.551.15.566.15.579.15.592.149.605.148.617.148.63.147.64.146.652.146.663.144.673.143.683.142.692.141.702.14.71.138.719.137.727.136.734.134.742.133.748.131.755.129.762.128.767.126.773.124.778.122.783.121.787.119.791.116.796.115.798.113.802.11.805.109.807.106.809.104.81.102.813.1.813.097.814.095.814.093.815.09.814.088.814.085.812.083.812.08.809.078.808.075.805.072.803.07.8.066.796.064.793.062.789.058.784.056.78.052.774.05.769.046.764.044.757.041.75.037.744.035.737.031.729.028.721.025.713.022.704.018.695.015.685.012.676.009.665.005.654.002.644-.001.631-.005.62-.008.608-.012.594-.015.581-.018.567-.022.553-.025.537-.028.522-.031.506-.035.489-.038.472-.041.453-.043.348-.037-.044-.227-.057-.352-.049-.367-.04-.382-.029-.393-.017-.402-.004-.41.009-.416.023-.418.036-.421.05-.42.063-.42.075-.418.087-.416.099-.414.109-.411.121-.408.13-.407.14-.405.15-.405.159-.405.168-.406.178-.407.187-.41.197-.414.207-.417.217-.422.703-1.328.957-.993.248-.253.251-.249.253-.246.255-.242.257-.238.258-.236.261-.231.262-.228.263-.225.266-.221.267-.217.268-.214.27-.211.271-.207.273-.204.274-.2.276-.197.277-.193.278-.19.278-.186.281-.184.281-.18.282-.176.284-.174.284-.17.285-.167.286-.164.287-.16.288-.158.288-.154.289-.151.289-.148.291-.145.29-.142.292-.14.292-.136.307-.14.571-.252.587-.247.589-.237.589-.226.591-.216.591-.205.591-.197.592-.187.592-.178.592-.169.591-.161.591-.153.59-.145.59-.137.588-.13.588-.123.587-.117.585-.11.585-.104.582-.097.582-.093.579-.087.578-.081.576-.077.575-.072.572-.068.57-.064.568-.059.565-.056.563-.053.56-.049.558-.046.563-.044 1.092-.078 1.089-.069 1.076-.063 1.062-.056 1.046-.053 1.397-.067.53.026.113.004.114.003.113.002h.111l.112-.002.111-.003.11-.004.11-.005.109-.007.108-.008.108-.01.106-.01.107-.012.105-.014.104-.014.104-.016.103-.017.102-.018.101-.019.1-.02.099-.022.098-.022.098-.024.096-.024.095-.026.094-.027.093-.028.092-.028.09-.03.089-.03.089-.032.087-.032.085-.033.085-.034.083-.034.082-.036.081-.036.079-.037.078-.037.076-.038.076-.039.073-.039.073-.04.071-.04.069-.041.068-.041.067-.042.065-.042.063-.042.063-.043.061-.043.059-.043.058-.044.056-.043.055-.044.053-.044.052-.044.051-.045.048-.043.048-.045.046-.044.045-.045.043-.044.042-.044.041-.044.039-.045.038-.043.036-.044.036-.044.034-.044.033-.044.032-.043.03-.043.03-.044.028-.043.027-.043.026-.043.025-.043.025-.043.023-.043.022-.043.021-.043.021-.043.02-.044.018-.043.018-.044.017-.044.017-.044.016-.045.015-.045.014-.045.013-.047.013-.047.012-.047.011-.049.011-.049.01-.05.009-.051.008-.052.008-.054.007-.055.006-.055.005-.057.004-.059.003-.061.002-.061.001-.064.001-.065-.002-.068-.002-.068-.004-.071-.005-.074-.006-.075-.008-.077-.01-.079-.011-.082-.013-.084-.003-.02-.134-.206-.162-.255-.156-.259-.151-.26-.146-.264-.14-.265-.136-.267-.13-.269-.124-.272-.119-.272-.113-.274-.108-.276-.102-.277-.096-.278-.091-.278-.084-.279-.079-.28-.073-.279-.067-.28-.061-.279-.056-.279-.05-.278-.045-.278-.039-.276-.034-.275-.029-.274-.023-.272-.019-.27-.013-.269-.009-.266-.004-.265v-.262l.005-.26.009-.288.028-.475.044-.497.058-.485.07-.474.08-.462.091-.451.1-.439.107-.428.114-.415.12-.405.125-.394.129-.383.133-.372.135-.362.137-.353.138-.342.139-.333.14-.323.139-.314.142-.316.265-.569.245-.511-.115-.208-.146-.285-.143-.3-.137-.318-.132-.337-.124-.357-.113-.375-.102-.397-.086-.418-.068-.437-.047-.454-.024-.472.002-.483.03-.492.06-.496.088-.493.118-.489.146-.476.169-.46.192-.44.209-.416.224-.391.233-.364.24-.337.243-.309.244-.285.241-.261.281-.28.405-.365.428-.342.072-.051-.095-.371-.107-.495-.088-.503-.068-.512-.047-.518-.025-.523-.001-.527.022-.527.046-.527.07-.523.094-.518.117-.51.139-.499.159-.487.178-.473.196-.457.21-.441.225-.424.235-.404.245-.387.253-.369.259-.351.264-.333.267-.316.27-.3.271-.286.272-.271.271-.257.271-.244.269-.233.268-.222.266-.211.263-.202.261-.193.259-.185.255-.177.254-.17.25-.164.246-.157.258-.161.461-.278.465-.27.45-.255.435-.24.419-.229.782-.422.364-.197.024-.013-.137-.152-.611-.682-.612-.69-.612-.699-.612-.706-.61-.715-.608-.724-.605-.734-.596-.735-.305-.382-.298-.378-.298-.38-.295-.383-.295-.386-.293-.388-.291-.391-.29-.394-.288-.397-.286-.399-.285-.403-.282-.405-.28-.409-.277-.411-.276-.415-.273-.418-.27-.421-.268-.424-.265-.428-.262-.43-.259-.434-.256-.438-.253-.441-.249-.445-.246-.448-.243-.451-.238-.455-.235-.459-.232-.463-.227-.466-.223-.47-.218-.473-.214-.477-.21-.481-.205-.485-.2-.489-.196-.492-.19-.496-.185-.501-.485-1.357-.172-1.847-.082-.916-.078-.916-.075-.915-.072-.913-.07-.916-.133-1.816-.128-1.814-.124-1.807-.124-1.799-.127-1.79-.131-1.785-.068-.882-.07-.883-.073-.88-.076-.877-.078-.873-.082-.87-.086-.867-.089-.862-.094-.859-.098-.855-.103-.851-.108-.847-.113-.842-.119-.838-.125-.833-.131-.828-.137-.824-.144-.818-.152-.823-.077-.396-.079-.403-.082-.402-.084-.401-.085-.399-.087-.398-.09-.397-.091-.395-.093-.394-.095-.392-.098-.391-.099-.389-.102-.388-.103-.387-.106-.385-.109-.384-.11-.382-.113-.38-.115-.38-.117-.377-.119-.376-.122-.375-.125-.373-.127-.371-.129-.37-.132-.369-.134-.366-.137-.366-.14-.364-.142-.362-.145-.361-.147-.359-.15-.358-.153-.356-.156-.355-.159-.353-.161-.351-.164-.351-.167-.348-.17-.347-.173-.346-.177-.344-.179-.343-.182-.341-.185-.34-.189-.338-.192-.337-.195-.335-.198-.334-.202-.333-.205-.331-.208-.33-.212-.328-.27-.41-.269-.424-.218-.335-.221-.331-.223-.328-.227-.325-.229-.323-.233-.319-.235-.316-.239-.313-.241-.31-.245-.308-.247-.305-.25-.302-.253-.299-.257-.296-.259-.294-.261-.291-.265-.289-.268-.286-.27-.283-.274-.281-.276-.278-.279-.276-.282-.273-.284-.271-.288-.268-.29-.267-.293-.263-.296-.262-.298-.258-.301-.257-.304-.254-.307-.252-.309-.25-.312-.247-.315-.246-.317-.243-.32-.24-.322-.239-.325-.236-.328-.234-.33-.232-.333-.23-.335-.228-.337-.225-.34-.223-.343-.222-.345-.219-.347-.217-.35-.215-.351-.213-.355-.211-.356-.209-.359-.206-.361-.205-.363-.203-.365-.201-.368-.198-.369-.197-.372-.195-.374-.193-.375-.191-.378-.189-.379-.187-.382-.185-.383-.183-.386-.181-.387-.18-.389-.177-.39-.176-.393-.174-.394-.172-.395-.17-.398-.169-.399-.166-.4-.165-.402-.163-.404-.161-.405-.16-.406-.158-.408-.156-.401-.151-.831-.307-.827-.297-.832-.291-.836-.284-.841-.278-.844-.272-.848-.266-.851-.26-.854-.254-.857-.248-.86-.244-.861-.237-.864-.233-.865-.227-.866-.223-.867-.217-.868-.214-.869-.208-.868-.205-.869-.2-.868-.196-.867-.192-.881-.192-.653-.142-.623-.13-.625-.125-.627-.12-.628-.114-.63-.109-.631-.104-.632-.099-.634-.093-.635-.089-.637-.082-.637-.078-.639-.073-.639-.067-.641-.062-.641-.056-.642-.052-.643-.046-.644-.041-.644-.035-.645-.03-.646-.025-.646-.02-.646-.014-.647-.01-.646-.003-.648.001ZM76.372 158.253v.134l.002-.124-.002-.01v-.057l-.045-.282.045.339Zm118.257-39.346.014.015-.014-.016v.001Z"/>
      </g>
    </g>
    <path fill-rule="nonzero" d="M279.71636248 122.27088974h-12.76709851v-5.76411428l12.76709851-15.17552674h6.1084222v15.50327242h3.16471294v5.4363686h-3.16471295v4.71472675h-6.10842219v-4.71472675Zm0-5.4363686v-7.93204667l-6.74437164 7.93204667h6.74437164Zm12.19880327-5.2304h6.5895187v-6.62407081h5.55666463v6.62407081h6.62409751v5.57317987h-6.6240975v6.59099557h-5.55666464V117.177301h-6.5895187v-5.57317987Zm29.31832173-2.54679436-6.62409751-1.18770221c.55025412-2.11080241 1.60866644-3.72697947 3.1737335-4.85153802 1.56506708-1.12455855 3.78262128-1.68683783 6.64965577-1.68683783 3.2925042 0 5.67242848.614899 7.13977282 1.84169014 1.46884777 1.22679114 2.20251994 2.7693006 2.20251994 4.62752836 0 1.08997988-.29767846 2.07622374-.89453881 2.96023501-.59686035.88250785-1.49590945 1.65676941-2.70015414 2.3227847.97422042.24054729 1.71992.52168693 2.23559533.84341892.8374086.51567324 1.4883923 1.19521931 1.95295112 2.03863822.46455882.8419155.69758994 1.84920725.69758994 3.01886841 0 1.46884185-.3848772 2.87604346-1.1531282 4.22461167-.76825097 1.34706478-1.87627636 2.38592836-3.3210693 3.1135839-1.44479295.72765553-3.34362072 1.09298671-5.69497989 1.09298671-2.29422896 0-4.10285114-.27061569-5.42736995-.80884024-1.32602224-.53972796-2.41450309-1.32752032-3.26995281-2.3663839-.8539463-1.03736016-1.51094371-2.34232917-1.96948882-3.91340361l7.002961-.92911389c.27512707 1.41020845.70210022 2.38893521 1.28091945 2.93317344.57881924.54423823 1.31700169.81786076 2.2115405.81786076.93964161 0 1.72292686-.3442833 2.34835232-1.0328499.62542546-.6885666.93813818-1.60565311.93813818-2.75276297 0-1.16966116-.30218874-2.07622374-.90355937-2.7181843-.60287406-.64346398-1.4192347-.96369255-2.45208875-.96369255-.55025413 0-1.30798113.13681126-2.27167756.41193722l.3623258-5.00639034c.38938749.05712998.69307965.08569497.9110765.08569497.91859365 0 1.68383778-.29166358 2.29723582-.87649416s.92009707-1.27941086.92009707-2.08223742c0-.76824789-.22852084-1.38164346-.68856937-1.84018672-.45854511-.46004668-1.08848085-.6885666-1.89131064-.6885666-.82688462 0-1.49741287.2495678-2.0130882.74870342-.51717873.49913561-.8659737 1.37262294-1.04939174 2.6234688Zm17.4277209-1.70337545h18.78832197v5.59122092H338.6612084v-5.59122092Zm0 8.46425753h18.78832197v5.5746833H338.6612084v-5.5746833Z"/>
  </g>
</svg>